<svg version="1.1" viewBox="0.0 0.0 621.6955380577427 408.15223097112863" fill="none" stroke="none" stroke-linecap="square" stroke-miterlimit="10" xmlns:xlink="http://www.w3.org/1999/xlink" xmlns="http://www.w3.org/2000/svg"><clipPath id="p.0"><path d="m0 0l621.69556 0l0 408.15222l-621.69556 0l0 -408.15222z" clip-rule="nonzero"/></clipPath><g clip-path="url(#p.0)"><path fill="#000000" fill-opacity="0.0" d="m0 0l621.69556 0l0 408.15222l-621.69556 0z" fill-rule="evenodd"/><path fill="#000000" fill-opacity="0.0" d="m18.177166 178.8084l586.3937 0l0 180.9764l-586.3937 0z" fill-rule="evenodd"/><path fill="#000000" d="m96.64591 256.3709l-27.40625 0l0 -18.35939q0 -8.0 -0.890625 -9.984375q-0.875 -2.0 -3.875 -2.0q-3.3749962 0 -4.296871 2.421875q-0.90625 2.40625 -0.90625 10.40625l0 48.95314q0 7.6875 0.90625 10.03125q0.921875 2.34375 4.109371 2.34375q3.0625 0 4.0 -2.34375q0.953125 -2.34375 0.953125 -11.0l0 -13.21875l27.40625 0l0 4.109375q0 16.328125 -2.3125 23.171875q-2.3125 6.828125 -10.234375 11.984375q-7.90625 5.140625 -19.484375 5.140625q-12.046871 0 -19.859371 -4.359375q-7.8125 -4.375 -10.359375 -12.078125q-2.53125 -7.71875 -2.53125 -23.21875l0 -30.781265q0 -11.40625 0.78125 -17.09375q0.78125 -5.703125 4.65625 -10.96875q3.875 -5.28125 10.734375 -8.296875q6.875 -3.03125 15.796875 -3.03125q12.109371 0 19.984371 4.6875q7.875 4.6875 10.34375 11.6875q2.484375 7.0 2.484375 21.765625l0 10.031265zm32.544 6.515625l-24.671883 0l0 -5.796875q0 -10.031265 2.3125 -15.468765q2.3125 -5.4375 9.265625 -9.59375q6.96875 -4.171875 18.109383 -4.171875q13.34375 0 20.109375 4.71875q6.78125 4.71875 8.140625 11.59375q1.375 6.859375 1.375 28.281265l0 43.359375l-25.59375 0l0 -7.6875q-2.40625 4.625 -6.21875 6.9375q-3.796875 2.3125 -9.078133 2.3125q-6.90625 0 -12.671875 -3.875q-5.75 -3.875 -5.75 -16.953125l0 -7.09375q0 -9.703125 3.0625 -13.21875q3.0625 -3.515625 15.171875 -8.203125q12.953133 -5.078125 13.859383 -6.828125q0.90625 -1.765625 0.90625 -7.1718903q0 -6.765625 -1.015625 -8.8125q-1.0 -2.0625 -3.34375 -2.0625q-2.671875 0 -3.328125 1.734375q-0.640625 1.71875 -0.640625 8.9375l0 9.062515zm8.328125 11.84375q-6.3125 4.625 -7.328125 7.75q-1.0 3.125 -1.0 8.984375q0 6.703125 0.875 8.65625q0.890625 1.953125 3.484375 1.953125q2.484375 0 3.21875 -1.53125q0.75 -1.53125 0.75 -8.046875l0 -17.765625zm61.3255 -45.312515l-0.453125 8.203125q3.0625 -4.875 7.296875 -7.3125q4.234375 -2.453125 9.640625 -2.453125q10.546875 0 16.59375 9.765625q3.3125 -4.875 7.484375 -7.3125q4.171875 -2.453125 9.25 -2.453125q6.703125 0 11.09375 3.265625q4.390625 3.25 5.625 7.96875q1.25 4.71875 1.25 15.328125l0 61.39064l-25.53125 0l0 -56.3125q0 -11.062515 -0.75 -13.70314q-0.734375 -2.640625 -3.46875 -2.640625q-2.796875 0 -3.625 2.609375q-0.8125 2.609375 -0.8125 13.73439l0 56.3125l-25.515625 0l0 -54.875q0 -12.70314 -0.625 -15.23439q-0.609375 -2.546875 -3.40625 -2.546875q-1.765625 0 -3.0 1.34375q-1.234375 1.328125 -1.375 3.25q-0.125 1.921875 -0.125 8.171875l0 59.89064l-25.515625 0l0 -86.39064l25.96875 0zm103.57672 0l-0.453125 7.625q3.515625 -4.625 7.75 -6.90625q4.234375 -2.28125 9.25 -2.28125q6.109375 0 10.5625 3.296875q4.46875 3.28125 5.578125 7.578125q1.109375 4.296875 1.109375 14.578125l0 36.39064q0 11.78125 -1.40625 16.765625q-1.390625 4.984375 -5.71875 7.953125q-4.328125 2.953125 -10.453125 2.953125q-4.890625 0 -9.0625 -2.28125q-4.15625 -2.28125 -7.609375 -6.765625l0 19.78125l-26.296875 0l0 -98.687515l26.75 0zm7.5 25.125q0 -8.0 -0.59375 -9.6875q-0.578125 -1.703125 -3.25 -1.703125q-2.609375 0 -3.359375 1.953125q-0.75 1.953125 -0.75 9.4375l0 35.812515q0 7.8125 0.78125 9.765625q0.78125 1.953125 3.390625 1.953125q2.53125 0 3.15625 -1.78125q0.625 -1.796875 0.625 -8.703125l0 -37.04689zm120.29675 -44.140625l0 105.406265l-23.953125 0l0 -71.156265l-9.5625 71.156265l-17.0 0l-10.09375 -69.531265l0 69.531265l-23.953125 0l0 -105.406265l35.484375 0q1.5625 9.515625 3.3125 22.40625l3.78125 26.812515l6.25 -49.218765l35.734375 0zm73.63168 61.718765q0 15.890625 -0.75 22.5q-0.75 6.609375 -4.6875 12.078125q-3.9375 5.46875 -10.640625 8.40625q-6.703125 2.921875 -15.625 2.921875q-8.46875 0 -15.203125 -2.765625q-6.734375 -2.765625 -10.84375 -8.296875q-4.09375 -5.546875 -4.875 -12.046875q-0.78125 -6.515625 -0.78125 -22.796875l0 -18.031265q0 -15.875 0.75 -22.484375q0.75 -6.609375 4.6875 -12.078125q3.9375 -5.46875 10.640625 -8.390625q6.703125 -2.9375 15.625 -2.9375q8.46875 0 15.203125 2.765625q6.734375 2.765625 10.828125 8.296875q4.109375 5.53125 4.890625 12.046875q0.78125 6.515625 0.78125 22.78125l0 18.031265zm-27.40625 -34.625015q0 -7.359375 -0.8125 -9.40625q-0.8125 -2.0625 -3.359375 -2.0625q-2.140625 0 -3.28125 1.671875q-1.140625 1.65625 -1.140625 9.796875l0 49.218765q0 9.171875 0.75 11.328125q0.75 2.140625 3.484375 2.140625q2.796875 0 3.578125 -2.46875q0.78125 -2.484375 0.78125 -11.78125l0 -48.437515zm84.95813 -27.09375l15.6875 105.406265l-28.0625 0l-1.359375 -18.9375l-9.828125 0l-1.625 18.9375l-28.390656 0l13.9375305 -105.406265l39.640625 0zm-14.515625 67.781265q-2.078125 -17.90625 -4.171875 -44.20314q-4.15625 30.20314 -5.203125 44.20314l9.375 0z" fill-rule="nonzero"/><defs><radialGradient id="p.1" gradientUnits="userSpaceOnUse" gradientTransform="matrix(16.699520808777184 0.0 0.0 16.699520808777184 0.0 0.0)" spreadMethod="pad" cx="18.61464449214826" cy="7.165402769403215" fx="18.61464449214826" fy="7.165402769403215" r="16.699520111083984"><stop offset="0.0" stop-color="#51ab2a"/><stop offset="1.0" stop-color="#203e13"/></radialGradient></defs><path fill="url(#p.1)" d="m45.233597 204.60367l0 0c0 -93.82752 118.923035 -169.88976 265.62207 -169.88976c146.699 0 265.622 76.06224 265.622 169.88976l-84.944855 0l0 0c0 -46.913757 -80.89191 -84.94488 -180.67715 -84.94488c-99.78525 0 -180.67717 38.03112 -180.67717 84.94488z" fill-rule="evenodd"/><path stroke="#38761d" stroke-width="1.0" stroke-linejoin="round" stroke-linecap="butt" d="m45.233597 204.60367l0 0c0 -93.82752 118.923035 -169.88976 265.62207 -169.88976c146.699 0 265.622 76.06224 265.622 169.88976l-84.944855 0l0 0c0 -46.913757 -80.89191 -84.94488 -180.67715 -84.94488c-99.78525 0 -180.67717 38.03112 -180.67717 84.94488z" fill-rule="evenodd"/></g></svg>